<?xml version="1.0" encoding="UTF-8" standalone="no"?>
<!-- Created with Inkscape (http://www.inkscape.org/) -->

<svg
   xmlns:dc="http://purl.org/dc/elements/1.1/"
   xmlns:cc="http://creativecommons.org/ns#"
   xmlns:rdf="http://www.w3.org/1999/02/22-rdf-syntax-ns#"
   xmlns:svg="http://www.w3.org/2000/svg"
   xmlns="http://www.w3.org/2000/svg"
   xmlns:sodipodi="http://sodipodi.sourceforge.net/DTD/sodipodi-0.dtd"
   xmlns:inkscape="http://www.inkscape.org/namespaces/inkscape"
   width="512"
   height="512"
   id="svg2"
   version="1.1"
   inkscape:version="0.48.2 r9819"
   sodipodi:docname="wsgigzip.svg">
  <defs
     id="defs4" />
  <sodipodi:namedview
     id="base"
     pagecolor="#ffffff"
     bordercolor="#666666"
     borderopacity="1.0"
     inkscape:pageopacity="0.0"
     inkscape:pageshadow="2"
     inkscape:zoom="0.75259261"
     inkscape:cx="-326.2057"
     inkscape:cy="100.98425"
     inkscape:document-units="px"
     inkscape:current-layer="layer1"
     showgrid="false"
     inkscape:window-width="1544"
     inkscape:window-height="1010"
     inkscape:window-x="0"
     inkscape:window-y="0"
     inkscape:window-maximized="0" />
  <metadata
     id="metadata7">
    <rdf:RDF>
      <cc:Work
         rdf:about="">
        <dc:format>image/svg+xml</dc:format>
        <dc:type
           rdf:resource="http://purl.org/dc/dcmitype/StillImage" />
        <dc:title></dc:title>
      </cc:Work>
    </rdf:RDF>
  </metadata>
  <g
     inkscape:label="Layer 1"
     inkscape:groupmode="layer"
     id="layer1"
     transform="translate(0,-540.36218)">
    <text
       xml:space="preserve"
       style="font-size:29.34836197px;font-style:normal;font-variant:normal;font-weight:bold;font-stretch:normal;line-height:125%;letter-spacing:0px;word-spacing:0px;fill:#000000;fill-opacity:1;stroke:none;font-family:American Typewriter;-inkscape-font-specification:American Typewriter Bold"
       x="14.689265"
       y="795.58002"
       id="text3089"
       sodipodi:linespacing="125%"
       inkscape:export-filename="/Users/lrees/Desktop/wsgigzip.png"
       inkscape:export-xdpi="9.3313932"
       inkscape:export-ydpi="9.3313932"
       transform="scale(0.96931614,1.0316552)"><tspan
         sodipodi:role="line"
         id="tspan3091"
         x="14.689265"
         y="795.58002"
         style="font-size:163.04644775px;font-weight:bold;-inkscape-font-specification:American Typewriter Bold">WSGi</tspan></text>
    <g
       id="g3093"
       transform="matrix(0.79021783,0,0,0.84103852,-42.461151,303.35165)"
       inkscape:export-filename="/Users/lrees/Desktop/wsgigzip.png"
       inkscape:export-xdpi="9.3313932"
       inkscape:export-ydpi="9.3313932">
      <path
         style="fill:#9f9fda"
         d="m 607.42952,719.37158 c -3.08096,-1.87863 -3.49264,-2.59744 -4.76779,-8.32481 -0.66185,-2.9727 2.511,-22.53084 7.39248,-45.56885 1.66981,-7.88062 3.03602,-14.71029 3.03602,-15.17704 0,-0.46676 -2.56103,0.69352 -5.69117,2.5784 -10.63125,6.4018 -20.21995,4.1004 -25.30883,-6.07441 -2.25903,-4.51675 -2.49632,-6.15521 -2.46185,-16.99855 0.0526,-16.54624 6.11496,-45.38538 12.40254,-59 1.52403,-3.3 3.57651,-10.05 4.56106,-15 2.61521,-13.14831 4.0205,-16.13571 8.94902,-19.02402 2.31614,-1.35735 6.27642,-2.75098 8.80063,-3.09696 4.04653,-0.55464 4.89464,-0.32389 7.16904,1.95051 3.1894,3.1894 3.19097,4.16007 0.0289,17.89024 -2.6273,11.40829 -4.21036,15.50704 -6.82851,17.67991 -0.83104,0.6897 -2.02759,3.74247 -2.659,6.78392 -0.6314,3.04145 -4.23307,14.77953 -8.00371,26.08461 -5.31968,15.94939 -6.62849,20.97929 -5.84153,22.44974 1.60804,3.00464 3.58021,3.16471 7.84717,0.63689 5.08612,-3.01309 17.64433,-19.61527 19.08465,-25.23024 4.04588,-15.77256 8.79008,-30.67055 14.10884,-44.30536 8.28335,-21.23463 12.3863,-25.43498 19.0927,-19.54597 2.43426,2.13756 2.2474,3.83249 -1.86047,16.87546 -1.98576,6.30502 -3.39126,11.68288 -3.12333,11.9508 0.26792,0.26793 3.17322,-2.19895 6.45622,-5.48195 8.57892,-8.57892 14.5236,-9.35248 21.92603,-2.85313 9.31567,8.17917 10.97665,26.49928 4.40264,48.55986 -3.35254,11.25019 -19.97872,38.61214 -26.43365,43.50222 -8.09497,6.13254 -13.75781,7.30254 -21.98416,4.54217 -3.2267,-1.08273 -5.99282,-1.83362 -6.14694,-1.66865 -0.43078,0.4611 -4.32856,20.21476 -5.97878,30.29995 -1.77797,10.86598 -1.87357,15.84583 -0.38331,19.96706 0.97407,2.69374 0.77443,3.79937 -1.49452,8.27693 -4.70355,9.282 -9.52281,11.44788 -16.29044,7.32127 z m 46.54187,-91.17368 c 3.67637,-1.28159 5.11447,-3.70731 7.93926,-13.39158 3.74801,-12.8494 4.02833,-22.57659 0.68755,-23.85857 -3.31941,-1.27378 -14.30282,12.04043 -20.50965,24.86203 -1.9274,3.9815 -2.05154,4.95384 -0.96678,7.57269 1.24911,3.0156 5.08012,5.80905 8.06924,5.88381 0.88042,0.022 3.0316,-0.45875 4.78038,-1.06838 z M 428.3072,713.19289 c -7.36566,-1.22638 -12.66547,-4.19077 -19.8828,-11.1212 -6.98838,-6.71059 -8.76699,-10.25749 -6.96546,-13.89052 1.87549,-3.78217 5.82064,-3.58544 11.25112,0.56104 4.47668,3.4182 4.99964,3.56277 12.77397,3.53146 14.06733,-0.0567 23.16647,-4.63014 26.09529,-13.11624 2.01898,-5.84989 6.42476,-22.26097 6.07236,-22.61888 -0.14501,-0.14727 -2.24316,0.63034 -4.66255,1.72804 -10.4854,4.75729 -16.88626,1.42654 -25.90291,-13.47883 -7.99871,-13.22261 -8.51098,-18.58958 -3.38634,-35.47784 3.11765,-10.27421 8.93293,-21.74307 16.19331,-31.93632 14.05807,-19.73691 22.74735,-23.29676 35.76612,-14.65278 5.16267,3.42782 5.98062,3.66374 10.75918,3.10322 4.19555,-0.49213 5.79655,-0.2166 8.48192,1.45972 3.95131,2.46658 5.39238,5.65916 7.78848,17.2548 l 1.80441,8.73223 -3.32723,7.76777 c -11.03471,25.76169 -14.94978,38.22515 -21.60161,68.76776 -2.03632,9.35 -4.81554,19.79158 -6.17604,23.2035 -4.19094,10.51022 -12.76868,16.7533 -27.29819,19.86825 -7.23133,1.55031 -10.06172,1.60042 -17.78303,0.31482 z m 30.55163,-99.87494 c 3.99774,-6.01976 7.56154,-11.7475 7.91957,-12.72832 0.59241,-1.6229 0.45354,-1.60991 -1.5438,0.14448 -2.5382,2.22945 -12.80194,17.54136 -14.16983,21.13918 -1.88386,4.95491 0.72002,2.09671 7.79406,-8.55534 z m 54.73363,45.41297 c -6.90801,-3.60194 -9.56701,-8.32439 -11.59696,-20.59648 l -1.26902,-7.67189 4.43187,-5.75742 c 2.43754,-3.16658 11.18188,-12.52602 19.43188,-20.79876 l 15,-15.04133 -5.40019,-0.52936 c -7.56823,-0.74189 -8.95119,-2.86282 -10.15357,-15.57168 -0.51565,-5.45033 -0.68771,-10.69688 -0.38234,-11.659 0.66258,-2.08763 10.75899,-5.45153 27.4361,-9.14112 21.71477,-4.8041 29.81576,-4.56908 35.41222,1.02738 2.9905,2.99051 3.22961,6.12657 1.47964,19.40606 -1.40495,10.66129 -3.44433,13.46012 -23.62017,32.41606 -8.12443,7.6332 -15.13155,14.46678 -15.57138,15.18574 -0.59125,0.96648 0.004,1.3072 2.28212,1.3072 4.20767,0 9.6279,2.40338 10.93708,4.8496 1.4731,2.75251 1.34128,17.08906 -0.18425,20.03921 -0.98564,1.90608 -3.45812,3.04608 -12.23526,5.6414 -6.05,1.78893 -12.35,3.80138 -14,4.47211 -4.13428,1.6806 -13.47589,3.92026 -16.5,3.9559 -1.375,0.0162 -3.849,-0.67393 -5.49777,-1.53362 z"
         id="path3061"
         inkscape:connector-curvature="0" />
      <path
         style="fill:#4e50cc"
         d="m 609.44723,719.31474 c -7.53493,-3.04072 -7.21719,-10.88107 2.24249,-55.33502 1.96936,-9.25462 3.33023,-17.07701 3.02417,-17.38308 -0.30607,-0.30606 -2.22637,0.9097 -4.26735,2.70169 -5.23997,4.60077 -9.87573,6.30863 -15.62452,5.75624 -14.06136,-1.35112 -17.60056,-17.96358 -10.81164,-50.74825 3.14965,-15.21012 8.15693,-32.18302 10.23221,-34.68358 0.57777,-0.69618 2.0781,-6.11776 3.33406,-12.04796 3.1823,-15.02573 4.29286,-17.31305 9.71949,-20.01846 5.23618,-2.61046 11.95691,-2.96367 13.81401,-0.726 2.82906,3.40881 -2.14739,27.91206 -6.61603,32.57632 -1.79823,1.87695 -3.09786,5.12794 -4.40958,11.03049 -1.02294,4.60306 -4.59013,16.0903 -7.9271,25.52721 -3.33696,9.43691 -6.06721,18.06727 -6.06721,19.17857 0,2.78099 2.63157,5.16341 5.70339,5.16341 4.35218,0 8.88542,-3.71574 15.59904,-12.78597 7.10757,-9.60247 9.69757,-14.14349 9.69757,-17.00264 0,-3.51251 6.88008,-25.29652 12.48937,-39.54437 8.55972,-21.74211 10.93917,-25.15969 15.93297,-22.88436 3.45829,1.5757 3.33345,4.23295 -0.8089,17.21734 -1.84237,5.775 -3.66985,11.9625 -4.06106,13.75 -1.08235,4.94541 1.26293,4.1348 6.29981,-2.17742 2.38196,-2.98508 6.00135,-6.58508 8.04308,-8 7.28946,-5.0516 15.31328,-2.29502 20.03662,6.88358 3.63583,7.06529 4.17709,22.64423 1.20408,34.65644 -3.08164,12.45112 -16.86168,38.49477 -24.99035,47.23065 -3.79357,4.07695 -11.35689,7.65675 -16.17699,7.65675 -2.25383,0 -6.33248,-0.96131 -9.06368,-2.13624 -2.7312,-1.17492 -5.23102,-1.87102 -5.55517,-1.54687 -1.34094,1.34094 -8.33507,39.57195 -8.34445,45.61211 -0.003,1.88595 0.5292,4.90721 1.18251,6.71392 1.03856,2.87207 0.88588,3.92961 -1.21487,8.41479 -3.45076,7.36751 -6.88904,9.26181 -12.61597,6.95071 z m 47.63848,-90.9612 c 5.56171,-3.91431 11.53213,-33.37676 7.56712,-37.34176 -2.40927,-2.40928 -3.9975,-2.14052 -7.97181,1.34897 -3.36146,2.9514 -12.61669,16.08363 -15.9602,22.64591 -5.56759,10.92745 6.18422,20.512 16.36489,13.34688 z m -234.49548,82.33595 c -3.94187,-1.24848 -6.52628,-3.1693 -12.21216,-9.07648 -8.10515,-8.42062 -9.22975,-10.60841 -6.82116,-13.26988 2.04372,-2.25828 4.35151,-1.70912 8.41521,2.0025 3.81453,3.48403 7.95207,4.36271 17.62116,3.74219 8.38777,-0.5383 16.89852,-4.09316 20.74572,-8.6653 2.69492,-3.20273 10.40449,-29.86294 9.03249,-31.23494 -0.47368,-0.47368 -2.40032,0.185 -4.31826,1.4763 -10.84166,7.29944 -18.99118,3.37464 -27.82242,-13.39925 -5.79257,-11.00229 -6.27253,-16.09803 -2.75946,-29.29708 4.42637,-16.63045 15.39769,-35.67877 27.02241,-46.91608 8.11384,-7.84344 13.49803,-8.14512 24.56536,-1.37642 4.9758,3.04316 6.0901,3.33415 11.09895,2.8983 4.83554,-0.42076 5.90853,-0.17426 8.15825,1.87425 2.62012,2.38577 4.65628,7.73915 6.83535,17.97118 1.16636,5.47676 1.10589,5.81528 -2.50088,14 -9.99707,22.68606 -15.02258,39.21286 -22.96001,75.50581 -3.18643,14.56958 -5.76418,20.32572 -11.50869,25.69903 -6.87415,6.42997 -14.16722,8.94225 -27.09186,9.33247 -7.55591,0.22812 -11.90195,-0.12702 -15.5,-1.2666 z m 27.71055,-82.13317 c 2.34417,-2.69796 17.30848,-25.33444 19.21586,-29.06779 5.09433,-9.97126 -5.03261,-1.49734 -12.92453,10.81486 -7.70914,12.02703 -11.16094,20.00293 -8.65687,20.00293 0.46476,0 1.52925,-0.7875 2.36554,-1.75 z m 64.78996,29.62655 c -3.29337,-1.31325 -6.82858,-4.68056 -8.70804,-8.29447 -2.3484,-4.51561 -4.35558,-17.583 -3.07864,-20.04288 1.83291,-3.53091 9.07473,-11.54825 24.42368,-27.0392 l 14.86249,-15 -6.11728,-0.29427 c -9.28887,-0.44685 -10.47878,-2.15892 -11.1359,-16.02273 l -0.51845,-10.93825 3.38582,-1.10998 c 12.17048,-3.98987 32.44252,-8.30492 41.49039,-8.83153 11.40676,-0.6639 15.30198,0.64274 17.46204,5.8576 1.81819,4.3895 -0.52367,22.31171 -3.51384,26.89132 -1.27562,1.9537 -10.47185,11.36711 -20.43605,20.9187 -9.9642,9.55159 -18.11673,17.74061 -18.11673,18.19783 0,0.45722 2.59987,0.83131 5.77749,0.83131 7.91474,0 9.8065,1.51482 10.68637,8.55706 0.38549,3.08532 0.39744,7.81595 0.0266,10.51252 -0.6515,4.73694 -0.81502,4.93968 -4.83237,5.99133 -2.28693,0.59866 -8.88306,2.67637 -14.65806,4.61713 -11.06912,3.7199 -20.49195,6.26938 -23,6.22295 -0.825,-0.0153 -2.62477,-0.47627 -3.99949,-1.02444 z"
         id="path3059"
         inkscape:connector-curvature="0" />
      <path
         style="fill:#5556b8"
         d="m 609.39853,719.29672 c -3.88373,-1.56437 -5.28801,-4.98897 -5.06949,-12.36287 0.11053,-3.72971 0.55367,-6.99927 0.98475,-7.2657 0.43108,-0.26642 0.50835,-1.58182 0.1717,-2.92312 -0.37769,-1.50486 -0.18034,-2.43871 0.51538,-2.43871 0.70328,0 0.8914,-0.94057 0.5,-2.5 -0.41526,-1.65454 -0.21034,-2.5 0.60595,-2.5 0.83353,0 1.0414,-0.96004 0.64116,-2.96123 -0.32573,-1.62867 -0.13868,-3.24154 0.41568,-3.58415 0.55436,-0.34262 0.7343,-1.48506 0.39986,-2.53878 -0.35531,-1.11948 -0.13637,-1.91584 0.52671,-1.91584 0.66308,0 0.88202,-0.79636 0.52671,-1.91584 -0.33444,-1.05372 -0.13242,-2.20981 0.44892,-2.5691 0.58135,-0.35929 0.81844,-1.03925 0.52686,-1.51103 -0.29157,-0.47177 0.64365,-6.32311 2.07827,-13.00299 1.43462,-6.67987 2.35595,-12.39766 2.0474,-12.70621 -0.30854,-0.30855 -2.23087,0.90519 -4.27185,2.69718 -9.9416,8.72885 -21.75648,7.79105 -26.92269,-2.13697 -4.13254,-7.94161 -3.61747,-19.78299 1.97285,-45.35504 3.84749,-17.59978 6.7937,-27.39478 9.63778,-32.04193 1.02392,-1.67306 2.05499,-5.04806 2.29126,-7.5 0.23627,-2.45194 0.74731,-5.22402 1.13565,-6.16018 0.38834,-0.93617 0.43385,-2.14257 0.10114,-2.68091 -0.33271,-0.53833 -0.20931,-1.22329 0.27421,-1.52212 0.48353,-0.29884 1.46046,-2.6196 2.17096,-5.15725 1.51003,-5.39331 6.45572,-9.32462 12.66102,-10.06421 5.28013,-0.62933 6.8126,0.67499 6.68119,5.68652 -0.0748,2.85216 0.18397,3.72769 0.8264,2.79619 1.11873,-1.62212 0.46999,2.23252 -2.28836,13.5968 -1.83333,7.55324 -5.12011,13.14571 -7.03163,11.96433 -0.46375,-0.28661 -0.54686,0.25108 -0.1847,1.19487 0.36427,0.94926 0.24745,1.46254 -0.26145,1.14876 -0.50597,-0.31198 -0.98597,1.58537 -1.06667,4.21633 -0.16401,5.34734 -12.4029,42.56053 -13.44369,40.8765 -0.84096,-1.3607 -1.87892,2.71398 -1.89593,7.44281 -0.0114,3.17744 0.47451,4.07429 2.98003,5.5 3.37599,1.92104 3.7524,2.97996 1.38253,3.88937 -0.99962,0.38359 -2.00551,-0.059 -2.61683,-1.15137 -0.80698,-1.44198 -1.15565,-1.51777 -1.8609,-0.40449 -0.47732,0.75349 -0.87475,2.38248 -0.88317,3.61998 -0.0136,2.00461 0.47896,2.25 4.51681,2.25 5.93588,0 9.9689,-1.77832 15.46788,-6.82042 2.58869,-2.3736 5.51123,-4.13747 6.88084,-4.15285 2.14424,-0.0241 2.32201,0.29626 1.7888,3.22327 -0.82904,4.55103 -3.90276,18.78898 -7.59157,35.16542 -1.72395,7.65348 -2.9323,14.40348 -2.68521,15 0.24708,0.59652 0.48477,0.33494 0.52819,-0.58128 0.0434,-0.91623 2.02766,-3.75834 4.40941,-6.31581 3.15246,-3.38503 4.80724,-6.33221 6.08314,-10.83414 3.57428,-12.61153 9.35689,-29.15458 11.96673,-34.23475 0.86194,-1.67781 1.84686,-4.82781 2.1887,-7 0.77631,-4.93284 1.43097,-5.73391 1.43097,-1.75097 0,6.36619 7.38907,11.19752 14.15698,9.25651 4.45102,-1.27654 6.43424,-3.42333 7.85704,-8.50504 0.68524,-2.44747 1.59529,-4.44994 2.02232,-4.44994 0.42703,0 0.54107,-0.9 0.25341,-2 -0.30399,-1.16246 -0.0307,-2 0.65264,-2 0.6466,0 0.89753,-0.45 0.55761,-1 -0.33992,-0.55 -0.28724,-1.53524 0.11707,-2.18942 0.4043,-0.65418 0.9198,-4.85809 1.14555,-9.34203 0.33414,-6.63684 0.10219,-8.46088 -1.24751,-9.81059 -2.36024,-2.36023 -3.96846,-2.07682 -7.92432,1.39647 -3.23601,2.84125 -12.25901,15.56596 -15.91601,22.44557 -3.01307,5.66827 -1.66882,1.25224 2.94917,-9.68836 2.54317,-6.0251 7.46779,-15.29791 10.94359,-20.60625 3.47581,-5.30834 6.15908,-9.81211 5.96282,-10.00836 -0.5922,-0.5922 -5.78503,2.93409 -9.91266,6.73138 l -3.8823,3.57159 0.69295,-3.5 c 0.38113,-1.925 1.11804,-5.975 1.63757,-9 0.51954,-3.025 2.09499,-9.775 3.50099,-15 3.61128,-13.42022 3.93655,-16.33728 2.00084,-17.94377 -2.17926,-1.80862 -4.86413,0.6633 -8.62809,7.94377 -1.5639,3.025 -2.85245,5.05 -2.86344,4.5 -0.0363,-1.81617 6.39091,-12.82634 8.09612,-13.86912 1.16299,-0.71119 2.45743,-0.66497 4.25,0.15178 3.45829,1.5757 3.33345,4.23295 -0.8089,17.21734 -1.84237,5.775 -3.66985,11.9625 -4.06106,13.75 -1.08235,4.94541 1.26293,4.1348 6.29981,-2.17742 2.38196,-2.98508 6.00135,-6.58508 8.04308,-8 7.28946,-5.0516 15.31328,-2.29502 20.03662,6.88358 3.63583,7.06529 4.17709,22.64423 1.20408,34.65644 -3.08164,12.45112 -16.86168,38.49477 -24.99035,47.23065 -3.79357,4.07695 -11.35689,7.65675 -16.17699,7.65675 -2.25383,0 -6.33248,-0.96131 -9.06368,-2.13624 -2.7312,-1.17492 -5.23102,-1.87102 -5.55517,-1.54687 -1.34094,1.34094 -8.33507,39.57195 -8.34445,45.61211 -0.003,1.88595 0.5292,4.90721 1.18251,6.71392 1.03856,2.87207 0.88588,3.92961 -1.21487,8.41479 -3.46034,7.38797 -6.88302,9.26156 -12.66467,6.93269 z m 2.38469,-34.72137 c -0.25354,-0.97297 -0.47766,-0.41903 -0.49804,1.23097 -0.0204,1.65 0.18706,2.44606 0.46099,1.76903 0.27392,-0.67703 0.29059,-2.02703 0.0371,-3 z m 53.30701,-57.26903 c 0,-0.55 -0.19844,-1 -0.44098,-1 -0.24254,0 -0.7191,0.45 -1.05902,1 -0.33992,0.55 -0.14148,1 0.44098,1 0.58246,0 1.05902,-0.45 1.05902,-1 z m 4.1229,-10 c 0.61803,0 0.87846,-0.88679 0.58735,-2 -0.33992,-1.29986 -0.0307,-2 0.88337,-2 0.8682,0 1.45421,-1.14801 1.53138,-3 0.13912,-3.33893 0.20545,-3.65619 1.359,-6.5 0.4462,-1.1 1.41984,-3.51746 2.16364,-5.37212 0.7438,-1.85467 1.2862,-6.12967 1.20534,-9.5 l -0.14702,-6.12788 -0.62311,5.5 c -1.14675,10.12207 -10.24853,32.82923 -12.92687,32.25 -0.64672,-0.13987 -1.15598,0.91744 -1.15598,2.40004 0,2.53408 0.13155,2.46844 3.00627,-1.5 1.65345,-2.28252 3.50594,-4.15004 4.11663,-4.15004 z m -246.6229,93.38317 c -3.94187,-1.24848 -6.52628,-3.1693 -12.21216,-9.07648 -8.10515,-8.42062 -9.22975,-10.60841 -6.82116,-13.26988 2.04372,-2.25828 4.35151,-1.70912 8.41521,2.0025 3.81453,3.48403 7.95207,4.36271 17.62116,3.74219 8.38777,-0.5383 16.89852,-4.09316 20.74572,-8.6653 2.69492,-3.20273 10.40449,-29.86294 9.03249,-31.23494 -0.47368,-0.47368 -2.40032,0.185 -4.31826,1.4763 -10.84166,7.29944 -18.99118,3.37464 -27.82242,-13.39925 -5.79257,-11.00229 -6.27253,-16.09803 -2.75946,-29.29708 4.00191,-15.03571 12.88945,-31.23063 24.50944,-44.66123 3.97751,-4.59728 3.98509,-3.3733 0.01,1.61249 -1.7047,2.13813 -3.96837,5.58389 -5.03039,7.65723 -1.73667,3.39048 -1.76948,3.83168 -0.32615,4.38554 1.09793,0.42132 1.4222,1.34323 1.02671,2.91899 -0.31793,1.26675 -0.12641,2.58231 0.42561,2.92348 0.55201,0.34117 1.00366,1.76825 1.00366,3.1713 0,2.20111 0.62691,1.69938 4.57091,-3.65815 2.514,-3.41503 7.464,-9.05982 11,-12.54398 5.1014,-5.02662 6.42909,-6.96154 6.42909,-9.36949 0,-3.52372 0.81011,-3.41018 7.98259,1.1188 4.04376,2.55338 5.04539,2.7668 10.23157,2.18005 4.47262,-0.50602 6.30813,-0.28407 8.26742,0.99971 1.38513,0.90757 2.51842,2.03481 2.51842,2.50496 0,0.47015 0.73832,2.59728 1.64071,4.72695 0.90239,2.12966 1.81081,5.67212 2.01872,7.87212 0.20791,2.2 0.81959,4.15 1.35929,4.33333 1.80524,0.61323 0.98609,4.60096 -2.60196,12.66667 -9.70743,21.82167 -14.89603,38.90421 -22.81621,75.11827 -3.18643,14.56958 -5.76418,20.32572 -11.50869,25.69903 -6.87415,6.42997 -14.16722,8.94225 -27.09186,9.33247 -7.55591,0.22812 -11.90195,-0.12702 -15.5,-1.2666 z m 50.6126,-63.88317 c 1.60904,-8.25 3.33014,-16.8 3.82466,-19 1.06245,-4.72652 0.36576,-9.27589 -1.48526,-9.69878 -1.02671,-0.23456 -0.86066,-1.51839 0.75034,-5.80122 1.13786,-3.025 2.21239,-6.85 2.38785,-8.5 0.17546,-1.65 0.59939,-3.94542 0.94206,-5.10092 0.37273,-1.25688 0.0314,-2.69259 -0.84965,-3.57362 -0.92361,-0.92361 -1.27264,-2.51922 -0.93612,-4.27959 0.40235,-2.10475 0.18849,-2.69211 -0.85496,-2.34805 -0.76533,0.25236 -1.53788,1.45567 -1.71677,2.67401 -0.24598,1.67526 -0.79285,2.06677 -2.24371,1.60628 -1.5153,-0.48093 -1.77899,-0.24546 -1.25481,1.12054 0.46901,1.22222 0.29936,1.5043 -0.57844,0.96179 -3.3195,-2.05157 -24.09779,27.25596 -24.09779,33.98965 0,3.21378 2.62831,0.63171 9.47471,-9.308 7.11377,-10.3279 10.09701,-13.36673 4.57649,-4.66177 -4.57653,7.21643 -3.63808,13.19855 1.33728,8.52445 3.01257,-2.83017 4.45721,-2.64952 5.16004,0.64523 0.32264,1.5125 1.46172,5.28633 2.5313,8.38628 1.06958,3.09995 1.73599,6.24995 1.4809,7 -0.39566,1.16341 -1.37418,8.26724 -4.04472,29.36372 -0.94359,7.45404 2.4663,-5.95007 5.5966,-22 z m 2.8874,-50.05902 c 0,-0.85746 0.45,-1.2809 1,-0.94098 0.55,0.33992 1,1.04148 1,1.55902 0,0.51754 -0.45,0.94098 -1,0.94098 -0.55,0 -1,-0.70156 -1,-1.55902 z m -41,39.18146 c 0,-0.20765 -0.6853,-0.9463 -1.52289,-1.64144 -1.27335,-1.05678 -1.41968,-0.99492 -0.89301,0.37756 0.53789,1.40173 2.4159,2.38422 2.4159,1.26388 z m 79.5,21.96592 c -6.02947,-2.67982 -9.81004,-8.94626 -10.91278,-18.08836 -0.45085,-3.73777 -0.34594,-4.49511 0.41558,-3 0.80027,1.57118 0.89772,1.18669 0.45452,-1.79324 -0.48603,-3.26788 -0.0416,-4.51438 3.20917,-9 2.07533,-2.86372 10.87437,-12.5212 19.55342,-21.46108 8.67905,-8.93987 15.78103,-16.58987 15.78219,-17 0.001,-0.41012 -2.81391,-0.59965 -6.25569,-0.42117 -5.63346,0.29214 -6.49707,0.0698 -8.65627,-2.22856 -2.1715,-2.31145 -2.42549,-3.55335 -2.68383,-13.12226 l -0.28534,-10.56918 2.68951,-1.02514 c 5.54021,-2.11171 30.83209,-7.90297 38.88393,-8.90353 13.06183,-1.62312 18.53085,0.65518 20.28936,8.4522 1.12071,4.96907 -0.76311,19.42055 -3.00754,23.07196 -1.6988,2.76374 -12.8497,13.95747 -32.22956,32.35334 -4.26067,4.04434 -7.74667,7.75684 -7.74667,8.25 0,0.49316 2.72958,0.89666 6.06574,0.89666 7.23968,0 9.93426,1.21412 9.93426,4.47617 0,1.32319 0.45,2.68391 1,3.02383 1.12423,0.69481 1.28973,6.11403 0.35871,11.74654 -0.55832,3.37778 -1.02476,3.85265 -4.73899,4.82469 -2.26585,0.59299 -8.84472,2.66605 -14.61972,4.60681 -10.93441,3.67463 -20.42791,6.25323 -23,6.2472 -0.825,-0.002 -2.85,-0.60354 -4.5,-1.33688 z m 107.5,-39.84347 c 0,-0.825 0.675,-2.0602 1.5,-2.74489 1.21995,-1.01247 1.5,-0.96484 1.5,0.25511 0,0.825 -0.675,2.0602 -1.5,2.74489 -1.21995,1.01247 -1.5,0.96484 -1.5,-0.25511 z m 5,-9.74489 c 0,-0.55 0.45,-1 1,-1 0.55,0 1,0.45 1,1 0,0.55 -0.45,1 -1,1 -0.55,0 -1,-0.45 -1,-1 z m 4.52699,-5.95633 c -0.32507,-0.52598 -1.25163,-0.70283 -2.05902,-0.39301 -2.24537,0.86163 -1.8585,-1.95687 2.15816,-15.72299 3.52496,-12.08094 7.00847,-20.62641 8.00287,-19.63201 0.26921,0.26921 -0.2766,3.12532 -1.21291,6.34691 -0.93631,3.22159 -1.80005,7.53551 -1.91941,9.58649 -0.11937,2.05098 -0.78291,4.4109 -1.47453,5.24425 -0.69163,0.83336 -1.04195,2.64278 -0.7785,4.02094 0.26345,1.37816 0.13955,2.50575 -0.27533,2.50575 -1.36065,0 -2.02657,3.22489 -0.93701,4.53772 0.7537,0.90816 0.75397,1.47695 9.4e-4,1.94235 -0.58568,0.36197 -0.80598,1.07703 -0.48954,1.58903 0.31643,0.51199 0.35032,0.9309 0.0753,0.9309 -0.275,0 -0.76596,-0.43035 -1.09104,-0.95633 z M 462.90273,559.62321 c 0.72187,-0.28888 1.58438,-0.25335 1.91667,0.0789 0.33229,0.33229 -0.25834,0.56864 -1.3125,0.52522 -1.16495,-0.048 -1.4019,-0.28495 -0.60417,-0.60417 z"
         id="path3057"
         inkscape:connector-curvature="0" />
      <path
         style="fill:#3e40d7"
         d="m 609.48989,717.87838 c -6.64157,-2.89125 -6.3072,-9.2824 2.68814,-51.38153 3.85432,-18.03858 4.47747,-22.19053 3.3305,-22.19053 -0.31994,0 -2.45744,1.51896 -4.75,3.37547 -11.78276,9.54164 -21.40744,8.81757 -26.7327,-2.01111 -2.11385,-4.29841 -2.38672,-6.20234 -2.34533,-16.36436 0.0387,-9.50803 0.67623,-14.27144 3.68041,-27.5 3.97471,-17.50225 7.03214,-27.66183 9.4647,-31.4504 0.86533,-1.34772 2.16022,-5.62272 2.87751,-9.5 2.57922,-13.94184 4.42218,-18.54443 8.50823,-21.24845 4.14275,-2.74154 10.56652,-3.92764 12.87888,-2.37799 3.74493,2.5097 -0.54838,25.52056 -5.89845,31.61396 -1.70585,1.94286 -3.10155,3.65917 -3.10155,3.81402 0,0.15485 -0.4784,2.95169 -1.06311,6.2152 -1.10883,6.1888 -3.02015,12.26245 -9.85441,31.31453 -5.06261,14.11322 -5.29221,18.52378 -1.0888,20.91564 3.37599,1.92104 3.7524,2.97996 1.38253,3.88937 -0.99962,0.38359 -2.00551,-0.059 -2.61683,-1.15137 -0.80698,-1.44198 -1.15565,-1.51777 -1.8609,-0.40449 -0.47732,0.75349 -0.87475,2.38248 -0.88317,3.61998 -0.0136,2.00461 0.47896,2.25 4.51681,2.25 5.93588,0 9.9689,-1.77832 15.46788,-6.82042 2.58869,-2.3736 5.51123,-4.13747 6.88084,-4.15285 2.14424,-0.0241 2.32201,0.29626 1.7888,3.22327 -0.84361,4.63097 -3.94567,18.98482 -7.61801,35.25 -3.3685,14.91945 -6.03606,30.914 -6.04573,36.25 -0.008,4.53857 2.98148,7.25 7.9941,7.25 4.37662,0 4.7303,0.68707 2.53699,4.92848 -2.2036,4.26129 -4.84121,4.94912 -10.13733,2.64358 z m -186.39966,-8.14853 c -4.71428,-1.63423 -11.91749,-6.83938 -10.88859,-7.86827 0.32924,-0.32924 3.75604,-0.0572 7.61512,0.60458 16.84979,2.88942 39.04873,-6.20278 44.13296,-18.07589 2.34858,-5.4846 5.2448,-17.2739 9.23309,-37.58395 1.62005,-8.25 3.35016,-16.8 3.84468,-19 1.06245,-4.72652 0.36576,-9.27589 -1.48526,-9.69878 -1.02671,-0.23456 -0.86066,-1.51839 0.75034,-5.80122 1.13786,-3.025 2.21239,-6.85 2.38785,-8.5 0.17546,-1.65 0.59939,-3.94542 0.94206,-5.10092 0.37273,-1.25688 0.0314,-2.69259 -0.84965,-3.57362 -0.92361,-0.92361 -1.27264,-2.51922 -0.93612,-4.27959 0.40235,-2.10475 0.18849,-2.69211 -0.85496,-2.34805 -0.76533,0.25236 -1.52549,1.36109 -1.68923,2.46384 -0.22499,1.51524 -1.06077,2.00501 -3.42152,2.00501 -2.39896,0 -3.89777,0.90882 -6.45928,3.91666 -8.52557,10.01114 -20.32149,29.68249 -20.32149,33.88894 0,4.6202 -8.11643,7.26653 -11.34501,3.69899 -3.67728,-4.06335 -1.85986,-11.79937 6.94928,-29.58021 7.12146,-14.37436 11.82178,-21.11336 21.10852,-30.26396 4.97411,-4.90119 6.28721,-6.82883 6.28721,-9.22968 0,-3.52372 0.81011,-3.41018 7.98259,1.1188 4.01812,2.53719 5.06515,2.76456 10.10503,2.19437 6.88785,-0.77927 9.38164,0.38902 11.47429,5.37549 2.31723,5.52158 4.60917,17.35791 3.91414,20.21393 -0.33461,1.375 -2.55039,6.775 -4.92395,12 -8.54409,18.80836 -13.26683,33.96696 -18.48187,59.32138 -6.42298,31.22713 -9.35604,36.60388 -23.09619,42.33884 -8.17545,3.41232 -24.6036,4.3183 -31.97404,1.76331 z m 17.02704,-53.13999 c -3.58426,-1.8407 -10.02704,-9.41026 -10.02704,-11.78067 0,-1.06022 0.76251,-1.13112 3.63503,-0.33797 5.49178,1.51635 11.25369,-1.12577 18.53711,-8.50019 3.32545,-3.367 7.36875,-8.04396 8.98511,-10.39326 1.61635,-2.3493 3.64846,-4.27145 4.51579,-4.27145 1.93525,0 1.63996,1.87915 -2.86274,18.21731 -3.20087,11.61442 -3.2691,11.74314 -7.76976,14.6585 -6.09931,3.9509 -10.60236,4.67306 -15.0135,2.40773 z m 75.61551,0.68825 c -6.48154,-1.94234 -9.37692,-6.87486 -10.66502,-18.16877 l -0.92463,-8.10713 3.69346,-5.09794 c 2.0314,-2.80387 10.82196,-12.44057 19.53457,-21.41488 8.71262,-8.97431 15.66061,-16.84931 15.43999,-17.5 -0.26783,-0.78991 -2.4199,-1.06847 -6.47582,-0.83821 -5.55115,0.31514 -6.21478,0.13105 -7.70021,-2.136 -1.75682,-2.68125 -3.89718,-21.61503 -2.60026,-23.002 1.28795,-1.37737 31.66514,-8.61853 40.83018,-9.73289 10.28774,-1.25087 15.32658,-0.10141 18.54007,4.22935 1.90664,2.56953 1.94492,3.21289 0.77349,13 -0.87499,7.31034 -1.90939,11.4568 -3.56657,14.29668 -1.28377,2.2 -10.47636,11.80429 -20.42797,21.34287 -9.9516,9.53858 -18.09383,17.97608 -18.09383,18.75 0,1.05485 1.51856,1.40713 6.06574,1.40713 8.23984,0 9.59642,0.90817 10.43203,6.98377 0.82597,6.00552 -0.24949,15.01734 -1.85139,15.51383 -0.63051,0.19541 -6.99638,2.22917 -14.14638,4.51947 -10.14031,3.24814 -25.9972,7.45454 -25.99963,6.89698 -2e-4,-0.0473 -1.28622,-0.47129 -2.85782,-0.94226 z m 120.85745,-5.26527 c -4.47068,-2.52659 -5.03962,-4.23201 -4.05113,-12.14355 0.95606,-7.6521 1.86168,-8.58456 5.2538,-5.40957 7.142,6.68485 15.2327,7.91951 24.04733,3.6697 2.8875,-1.39215 5.25,-2.13793 5.25,-1.65727 0,0.48065 -1.06908,2.55247 -2.37573,4.60404 -7.61288,11.953 -18.69822,16.26374 -28.12427,10.93665 z m 26.89064,-33.20652 c 0.29378,-1.65 1.21826,-6.15 2.05439,-10 2.77158,-12.7618 1.42717,-20.5 -3.56159,-20.5 -1.10174,0 -4.45622,2.32 -7.45441,5.15556 -2.99818,2.83556 -5.64658,4.96022 -5.88533,4.72147 -0.23875,-0.23875 2.2353,-5.14625 5.49789,-10.90556 4.17549,-7.37082 7.3033,-11.58186 10.56318,-14.22147 5.29837,-4.29022 6.27596,-4.47833 9.53445,-1.83463 2.20517,1.78912 2.34732,2.52667 2.15657,11.18963 -0.15377,6.98352 -0.86671,11.26517 -2.88639,17.33463 -3.20805,9.64071 -6.61276,17.32433 -8.889,20.06037 -1.61639,1.94289 -1.64865,1.91433 -1.12976,-1 z m -41.39064,-0.75511 c 0,-0.825 0.675,-2.0602 1.5,-2.74489 1.21995,-1.01247 1.5,-0.96484 1.5,0.25511 0,0.825 -0.675,2.0602 -1.5,2.74489 -1.21995,1.01247 -1.5,0.96484 -1.5,-0.25511 z m 5,-9.74489 c 0,-0.55 0.45,-1 1,-1 0.55,0 1,0.45 1,1 0,0.55 -0.45,1 -1,1 -0.55,0 -1,-0.45 -1,-1 z m 4.52699,-5.95633 c -0.32507,-0.52598 -1.25163,-0.70283 -2.05902,-0.39301 -2.24537,0.86163 -1.8585,-1.95687 2.15816,-15.72299 3.52496,-12.08094 7.00847,-20.62641 8.00287,-19.63201 0.26921,0.26921 -0.2766,3.12532 -1.21291,6.34691 -0.93631,3.22159 -1.80005,7.53551 -1.91941,9.58649 -0.11937,2.05098 -0.78291,4.4109 -1.47453,5.24425 -0.69163,0.83336 -1.04195,2.64278 -0.7785,4.02094 0.26345,1.37816 0.13955,2.50575 -0.27533,2.50575 -1.36065,0 -2.02657,3.22489 -0.93701,4.53772 0.7537,0.90816 0.75397,1.47695 9.4e-4,1.94235 -0.58568,0.36197 -0.80598,1.07703 -0.48954,1.58903 0.31643,0.51199 0.35032,0.9309 0.0753,0.9309 -0.275,0 -0.76596,-0.43035 -1.09104,-0.95633 z M 476.09023,596.7473 c 0,-0.85746 0.45,-1.2809 1,-0.94098 0.55,0.33992 1,1.04148 1,1.55902 0,0.51754 -0.45,0.94098 -1,0.94098 -0.55,0 -1,-0.70156 -1,-1.55902 z"
         id="path3055"
         inkscape:connector-curvature="0" />
      <path
         style="fill:#3436e9"
         d="m 609.48989,717.87838 c -6.64157,-2.89125 -6.3072,-9.2824 2.68814,-51.38153 3.85432,-18.03858 4.47747,-22.19053 3.3305,-22.19053 -0.31994,0 -2.45744,1.51896 -4.75,3.37547 -11.78451,9.54305 -21.42303,8.8176 -26.71998,-2.01111 -3.31817,-6.78342 -3.34258,-20.82051 -0.0606,-34.86436 6.239,-26.6974 8.36702,-34.19792 11.22243,-39.55522 1.70178,-3.19288 2.82107,-6.24711 2.48729,-6.78717 -0.75955,-1.22898 2.13908,-15.2941 3.41482,-16.56984 0.58735,-0.58735 1.73188,-0.22434 3.04799,0.96673 2.85214,2.58115 9.21543,2.35715 13.02374,-0.45846 l 2.91601,-2.15592 -0.0171,2.27994 c -0.0354,4.71612 -3.91596,17.07983 -6.08559,19.38929 -3.08939,3.28851 -3.87063,3.00134 -3.19311,-1.17375 l 0.57843,-3.5644 -4.3913,0.3144 c -3.979,0.28488 -4.36615,0.54129 -4.12355,2.73106 0.15238,1.37538 -0.62903,3.37124 -1.81353,4.63208 -2.90371,3.09086 -2.89534,8.23276 0.017,10.42953 2.11104,1.59236 2.19052,2.00168 1.05615,5.43884 -0.67467,2.04429 -0.96742,3.97615 -0.65055,4.29302 0.31687,0.31687 0.87378,-0.27578 1.23758,-1.317 0.36379,-1.04122 1.97507,-4.81813 3.5806,-8.39313 l 2.91916,-6.5 -0.57421,5.11953 c -0.31581,2.81575 -2.40444,10.24075 -4.6414,16.5 -2.23696,6.25926 -4.42723,12.54611 -4.86727,13.97079 -0.44003,1.42468 -1.52851,3.89968 -2.41885,5.5 -1.52153,2.73487 -1.58865,2.75949 -1.11712,0.40968 0.27591,-1.375 1.42924,-6.325 2.56295,-11 1.13371,-4.675 2.26801,-9.625 2.52068,-11 l 0.45939,-2.5 -1.11216,2.5 c -3.38194,7.60218 -5.66652,11.39101 -7.67615,12.73041 -1.2375,0.82479 -2.25,2.09253 -2.25,2.81721 0,0.72468 -0.89895,1.60292 -1.99768,1.95164 -2.56192,0.81313 -3.40711,4.28975 -2.70251,11.11664 1.1629,11.26745 6.30222,16.96821 15.10918,16.75979 6.24528,-0.14781 8.41551,-1.196 14.75643,-7.12719 5.15926,-4.82588 8.66048,-5.29173 7.41315,-0.98635 -0.86606,2.98933 -7.11439,32.2526 -10.0863,47.23785 -1.30892,6.6 -2.68707,15.43059 -3.06254,19.62353 -0.6218,6.94378 -0.49307,7.81313 1.4438,9.75 1.4598,1.4598 3.3805,2.12647 6.12647,2.12647 4.37662,0 4.7303,0.68707 2.53699,4.92848 -2.2036,4.26129 -4.84121,4.94912 -10.13733,2.64358 z m -186.39966,-8.14853 c -4.71428,-1.63423 -11.91749,-6.83938 -10.88859,-7.86827 0.32924,-0.32924 3.75604,-0.0572 7.61512,0.60458 16.85287,2.88994 39.06179,-6.20775 44.12608,-18.07589 2.17541,-5.09806 6.0915,-20.8346 8.60634,-34.58395 2.71874,-14.86422 15.62031,-58.17404 19.47509,-65.37674 0.65399,-1.22201 1.41598,-4.10425 1.6933,-6.40499 0.64741,-5.37115 1.097,-5.72751 3.41061,-2.70333 2.36561,3.09213 5.37438,16.05924 4.44895,19.17395 -0.37766,1.27111 -2.6135,6.58611 -4.96852,11.81111 -8.57832,19.03241 -13.25331,34.06519 -18.44815,59.32138 -6.42298,31.22713 -9.35604,36.60388 -23.09619,42.33884 -8.17545,3.41232 -24.6036,4.3183 -31.97404,1.76331 z m 17.02704,-53.13999 c -3.58426,-1.8407 -10.02704,-9.41026 -10.02704,-11.78067 0,-1.06022 0.76251,-1.13112 3.63503,-0.33797 5.49178,1.51635 11.25369,-1.12577 18.53711,-8.50019 3.32545,-3.367 7.36875,-8.04396 8.98511,-10.39326 1.61635,-2.3493 3.64846,-4.27145 4.51579,-4.27145 1.93525,0 1.63996,1.87915 -2.86274,18.21731 -3.20087,11.61442 -3.2691,11.74314 -7.76976,14.6585 -6.09931,3.9509 -10.60236,4.67306 -15.0135,2.40773 z m 75.30587,0.61916 c -5.70171,-1.65073 -10.31224,-9.3919 -10.32733,-17.33979 l -0.006,-2.93709 2.75,2.62347 c 6.26026,5.97223 10.67123,5.6326 31.66895,-2.43843 14.27653,-5.48757 20.75784,-6.52641 21.39276,-3.4289 0.65376,3.18939 -0.90356,12.72094 -2.14141,13.10646 -0.64366,0.20046 -7.0203,2.23835 -14.1703,4.52865 -10.17763,3.2601 -25.9973,7.45405 -25.99963,6.89274 -2e-4,-0.0496 -1.42556,-0.5028 -3.16746,-1.00711 z m 121.16709,-5.19618 c -4.47068,-2.52659 -5.03962,-4.23201 -4.05113,-12.14355 0.95606,-7.6521 1.86168,-8.58456 5.2538,-5.40957 7.142,6.68485 15.2327,7.91951 24.04733,3.6697 2.8875,-1.39215 5.25,-2.13793 5.25,-1.65727 0,0.48065 -1.06908,2.55247 -2.37573,4.60404 -7.61288,11.953 -18.69822,16.26374 -28.12427,10.93665 z M 433.60377,634.32128 c -3.87255,-4.27912 0.30053,-17.9909 11.7401,-38.57526 8.10688,-14.58751 20.2708,-26.1746 26.23297,-24.98897 3.95345,0.78618 5.45944,2.44198 6.16271,6.77574 0.82426,5.07932 -3.49569,14.44588 -7.07716,15.34477 -2.52194,0.63297 -8.67749,7.67874 -15.47292,17.71061 -3.97473,5.86776 -10.09924,18.1119 -10.09924,20.19042 0,2.47754 -3.77706,5.52773 -6.84501,5.52773 -1.56787,0 -3.65144,-0.89109 -4.64145,-1.98504 z m 113.22701,-4.60774 c -0.7436,-0.74361 0.33231,-4.40722 1.29429,-4.40722 0.44087,0 1.51339,-0.27315 2.38337,-0.60699 1.06662,-0.4093 1.58179,-0.0437 1.58179,1.12245 0,1.40077 0.27674,1.49976 1.4562,0.52089 0.8009,-0.66469 1.95895,-0.89781 2.57344,-0.51803 0.7279,0.44986 0.35024,1.22773 -1.08371,2.23211 -2.25602,1.58017 -7.26966,2.5925 -8.20538,1.65679 z m -24.42499,-5.23503 c 0.47072,-2.3536 0.12986,-3.31426 -1.60916,-4.53511 -1.90456,-1.33706 -2.0012,-1.70075 -0.7064,-2.65853 1.18726,-0.87823 0.99262,-0.96546 -0.93354,-0.41842 -2.32364,0.65994 -2.27847,0.49516 1,-3.64862 1.88845,-2.38687 8.11092,-9.23926 13.82772,-15.22752 7.35585,-7.70514 10.02006,-11.11896 9.11432,-11.67874 -0.70392,-0.43504 -3.87035,-0.55609 -7.03652,-0.26899 -5.43921,0.49321 -5.85628,0.36995 -7.56321,-2.23514 -1.43025,-2.18285 -1.81719,-4.86332 -1.85766,-12.86884 l -0.0511,-10.1117 8,-2.29939 c 14.59305,-4.19439 25.89019,-6.38288 35.5,-6.87711 15.57193,-0.80085 17.91924,2.13024 15.74102,19.65592 -0.56811,4.57091 -1.83317,9.06218 -3.23922,11.5 -1.26888,2.2 -10.24092,11.5952 -19.93786,20.87822 -18.57281,17.78 -20.69826,20.28819 -18.41719,21.73364 1.66776,1.05681 2.55925,0.93253 -11.03758,1.53868 l -11.39084,0.5078 0.59723,-2.98615 z m 141.02183,-5.92219 c 0.32307,-1.5125 1.27151,-5.9 2.10764,-9.75 2.77158,-12.7618 1.42717,-20.5 -3.56159,-20.5 -1.10174,0 -4.45622,2.32 -7.45441,5.15556 -2.99818,2.83556 -5.64658,4.96022 -5.88533,4.72147 -0.23875,-0.23875 2.2353,-5.14625 5.49789,-10.90556 4.17549,-7.37082 7.3033,-11.58186 10.56318,-14.22147 5.29837,-4.29022 6.27596,-4.47833 9.53445,-1.83463 2.19692,1.78243 2.3471,2.54257 2.16373,10.95177 -0.1614,7.40141 -0.85383,10.99017 -3.82697,19.83463 -3.362,10.00124 -7.76673,19.29823 -9.14313,19.29823 -0.32057,0 -0.31852,-1.2375 0.005,-2.75 z m -34.30698,-20.37105 c -0.0351,-3.02463 6.13873,-23.69345 7.91455,-26.49645 1.39938,-2.20882 1.51971,-2.80409 -2.89168,14.30561 -3.18096,12.33744 -4.97077,16.68143 -5.02287,12.19084 z"
         id="path3053"
         inkscape:connector-curvature="0" />
      <path
         style="fill:#3738d5"
         d="m 609.48989,717.87838 c -6.64157,-2.89125 -6.3072,-9.2824 2.68814,-51.38153 3.85432,-18.03858 4.47747,-22.19053 3.3305,-22.19053 -0.31994,0 -2.45744,1.51896 -4.75,3.37547 -8.50532,6.88758 -15.25773,8.39191 -21.25442,4.73515 -3.81051,-2.32363 -7.17555,-9.23148 -8.02732,-16.47869 -0.75152,-6.39425 0.35153,-16.91184 1.68708,-16.08642 0.5095,0.31489 0.98342,-0.46653 1.05316,-1.73649 0.0697,-1.26996 0.49539,0.53006 0.94587,4.00005 1.60088,12.33131 6.35702,17.77912 15.33632,17.56662 6.24528,-0.14781 8.41551,-1.196 14.75643,-7.12719 5.15926,-4.82588 8.66048,-5.29173 7.41315,-0.98635 -0.86606,2.98933 -7.11439,32.2526 -10.0863,47.23785 -1.30892,6.6 -2.68707,15.43059 -3.06254,19.62353 -0.6218,6.94378 -0.49307,7.81313 1.4438,9.75 1.4598,1.4598 3.3805,2.12647 6.12647,2.12647 4.37662,0 4.7303,0.68707 2.53699,4.92848 -2.2036,4.26129 -4.84121,4.94912 -10.13733,2.64358 z m -186.39966,-8.14853 c -4.71428,-1.63423 -11.91749,-6.83938 -10.88859,-7.86827 0.32924,-0.32924 3.75604,-0.0572 7.61512,0.60458 16.85287,2.88994 39.06179,-6.20775 44.12608,-18.07589 2.17541,-5.09806 6.0915,-20.8346 8.60634,-34.58395 2.76104,-15.09546 14.26254,-53.56869 19.96794,-66.79402 0.9002,-2.08671 1.32789,-4.29374 0.95041,-4.90451 -0.417,-0.67472 -0.23051,-0.82878 0.47525,-0.3926 0.65264,0.40336 1.42872,0.0217 1.7713,-0.87101 1.14725,-2.98971 3.22156,0.38047 4.91269,7.98177 1.85526,8.33907 1.82004,8.52737 -4.01816,21.48037 -8.57832,19.03241 -13.25331,34.06519 -18.44815,59.32138 -6.42298,31.22713 -9.35604,36.60388 -23.09619,42.33884 -8.17545,3.41232 -24.6036,4.3183 -31.97404,1.76331 z m 17.02704,-53.13999 c -3.58426,-1.8407 -10.02704,-9.41026 -10.02704,-11.78067 0,-1.06022 0.76251,-1.13112 3.63503,-0.33797 5.49178,1.51635 11.25369,-1.12577 18.53711,-8.50019 3.32545,-3.367 7.36875,-8.04396 8.98511,-10.39326 1.61635,-2.3493 3.64846,-4.27145 4.51579,-4.27145 1.93525,0 1.63996,1.87915 -2.86274,18.21731 -3.20087,11.61442 -3.2691,11.74314 -7.76976,14.6585 -6.09931,3.9509 -10.60236,4.67306 -15.0135,2.40773 z m 75.30587,0.61916 c -5.70171,-1.65073 -10.31224,-9.3919 -10.32733,-17.33979 l -0.006,-2.93709 2.75,2.62347 c 6.26026,5.97223 10.67123,5.6326 31.66895,-2.43843 14.27653,-5.48757 20.75784,-6.52641 21.39276,-3.4289 0.65376,3.18939 -0.90356,12.72094 -2.14141,13.10646 -0.64366,0.20046 -7.0203,2.23835 -14.1703,4.52865 -10.17763,3.2601 -25.9973,7.45405 -25.99963,6.89274 -2e-4,-0.0496 -1.42556,-0.5028 -3.16746,-1.00711 z m 121.16709,-5.19618 c -4.47068,-2.52659 -5.03962,-4.23201 -4.05113,-12.14355 0.95606,-7.6521 1.86168,-8.58456 5.2538,-5.40957 7.142,6.68485 15.2327,7.91951 24.04733,3.6697 2.8875,-1.39215 5.25,-2.13793 5.25,-1.65727 0,0.48065 -1.06908,2.55247 -2.37573,4.60404 -7.61288,11.953 -18.69822,16.26374 -28.12427,10.93665 z M 433.60377,634.32128 c -3.87255,-4.27912 0.30053,-17.9909 11.7401,-38.57526 8.10688,-14.58751 20.2708,-26.1746 26.23297,-24.98897 3.95345,0.78618 5.45944,2.44198 6.16271,6.77574 0.82426,5.07932 -3.49569,14.44588 -7.07716,15.34477 -2.52194,0.63297 -8.67749,7.67874 -15.47292,17.71061 -3.97473,5.86776 -10.09924,18.1119 -10.09924,20.19042 0,2.47754 -3.77706,5.52773 -6.84501,5.52773 -1.56787,0 -3.65144,-0.89109 -4.64145,-1.98504 z m 113.12706,-4.78959 c -0.24584,-0.39895 1.40214,-0.85556 3.66219,-1.01468 2.26004,-0.15912 3.80955,0.0103 3.44336,0.37649 -0.97974,0.97974 -6.58486,1.48317 -7.10555,0.63819 z m -24.4016,-5.48034 c 0.14355,-1.95257 0.57824,-3.35495 0.96597,-3.11639 0.80986,0.49827 6.76539,-4.74025 25.79503,-22.68943 7.425,-7.00343 15.31115,-14.24229 17.52478,-16.08636 2.21363,-1.84407 7.34319,-6.95285 11.39902,-11.35285 4.05583,-4.4 7.80464,-8.16582 8.3307,-8.36849 0.54628,-0.21047 0.7195,0.86165 0.4039,2.5 -0.30391,1.57767 -0.85413,5.34349 -1.22273,8.36849 -0.36859,3.025 -1.33692,6.85 -2.15184,8.5 -0.81492,1.65 -10.11451,11.55 -20.66576,22 -10.55125,10.45 -19.61923,19.81805 -20.15108,20.81789 -0.79691,1.49816 -2.68381,1.91986 -10.72799,2.39758 l -9.76101,0.57969 0.26101,-3.55013 z m 141.09839,-5.49503 c 0.32307,-1.5125 1.27151,-5.9 2.10764,-9.75 2.77158,-12.7618 1.42717,-20.5 -3.56159,-20.5 -1.10174,0 -4.45622,2.32 -7.45441,5.15556 -2.99818,2.83556 -5.64658,4.96022 -5.88533,4.72147 -0.23875,-0.23875 2.2353,-5.14625 5.49789,-10.90556 4.17549,-7.37082 7.3033,-11.58186 10.56318,-14.22147 5.29837,-4.29022 6.27596,-4.47833 9.53445,-1.83463 2.19692,1.78243 2.3471,2.54257 2.16373,10.95177 -0.1614,7.40141 -0.85383,10.99017 -3.82697,19.83463 -3.362,10.00124 -7.76673,19.29823 -9.14313,19.29823 -0.32057,0 -0.31852,-1.2375 0.005,-2.75 z m -67.96124,-1.75 c 0.24707,-1.1 0.97195,-4.475 1.61084,-7.5 1.38799,-6.57175 3.88716,-15.72324 5.05216,-18.5 0.46151,-1.1 2.24218,-5.15 3.95705,-9 l 3.11794,-7 -0.57421,5.11953 c -0.31581,2.81575 -2.40444,10.24075 -4.6414,16.5 -2.23696,6.25926 -4.42723,12.54611 -4.86727,13.97079 -1.07492,3.48023 -4.24625,9.04153 -3.65511,6.40968 z m 33.65426,-18.62105 c -0.0351,-3.02463 6.13873,-23.69345 7.91455,-26.49645 1.39938,-2.20882 1.51971,-2.80409 -2.89168,14.30561 -3.18096,12.33744 -4.97077,16.68143 -5.02287,12.19084 z M 528.49152,583.79601 c -1.03385,-1.57786 -1.81921,-5.64092 -2.16658,-11.20887 -0.51612,-8.27271 -0.45373,-8.6427 1.18163,-7.00734 2.08524,2.08524 1.36741,2.0748 16.12167,0.23451 13.53049,-1.68765 24.46199,-1.95322 24.46199,-0.59428 0,0.50254 -3.4875,3.83607 -7.75,7.40784 -4.2625,3.57178 -9.21912,8.02636 -11.01471,9.89907 -3.14075,3.27567 -3.56744,3.41138 -11.2385,3.57452 -7.47018,0.15887 -8.07623,0.0133 -9.5955,-2.30545 z m 73.32992,-15.56985 c 0.35361,-1.3522 0.8069,-1.8055 1.05655,-1.05655 0.24048,0.72144 -0.0382,1.78716 -0.61931,2.36826 -0.74207,0.74207 -0.87221,0.35164 -0.43724,-1.31171 z m 8.9625,-1.41984 0.56797,-3.5 -4.07182,0 c -2.2395,0 -4.34994,0.45 -4.68986,1 -0.77308,1.25087 -4.18942,1.31155 -4.94571,0.0878 -0.72842,-1.17861 2.2239,-15.26603 3.45794,-16.50008 0.58735,-0.58734 1.73188,-0.22433 3.04799,0.96673 2.85214,2.58116 9.21543,2.35716 13.02374,-0.45845 l 2.91604,-2.15592 -0.0171,2.27994 c -0.0354,4.71612 -3.91596,17.07983 -6.08559,19.38929 -3.07858,3.277 -3.87084,3.00265 -3.20356,-1.10935 z"
         id="path3051"
         inkscape:connector-curvature="0" />
      <path
         style="fill:#16149e"
         d="m 609.48989,717.87838 c -6.44805,-2.807 -6.35492,-4.53859 2.67405,-49.71893 3.86274,-19.32889 4.49711,-23.85313 3.34459,-23.85313 -0.31994,0 -2.45744,1.51896 -4.75,3.37547 -5.83952,4.72882 -9.95495,6.62513 -14.36864,6.62079 -8.32069,-0.008 -13.3997,-6.52112 -14.10532,-18.08759 -0.5985,-9.81064 0.0667,-11.34671 2.53107,-5.84449 6.03892,13.48329 22.34556,14.28566 32.33128,1.59088 1.84883,-2.35041 4.94331,-3.64726 4.94331,-2.07167 0,0.32086 -0.87011,4.03336 -1.93358,8.25 -4.40388,17.46135 -11.12791,53.40563 -11.33986,60.61888 -0.20675,7.03585 -0.0201,7.87795 2.13422,9.62894 1.42492,1.15814 3.90255,1.91879 6.25,1.91879 4.26547,0 4.61142,0.70274 2.42621,4.92848 -2.2036,4.26129 -4.84121,4.94912 -10.13733,2.64358 z m -186.39966,-8.14853 c -4.53089,-1.57066 -11.932,-6.82487 -10.96943,-7.78744 0.28479,-0.28478 3.74208,-0.0187 7.68287,0.59127 5.91318,0.91527 8.63148,0.82093 15.55779,-0.53997 10.65602,-2.09373 13.93941,-3.49127 21.42826,-9.12074 4.85961,-3.65303 6.47468,-5.60365 8.12496,-9.81299 2.52676,-6.44496 6.46714,-21.36563 8.64988,-32.75366 3.40554,-17.76781 15.89359,-56.12956 22.31637,-68.55317 l 2.04044,-3.94683 1.17982,3 c 0.64891,1.65 1.41552,5.4896 1.70359,8.53245 0.47044,4.96905 0.0598,6.59841 -4.03233,16 -9.00155,20.68087 -13.1237,34.21215 -19.63927,64.46755 -1.65821,7.7 -3.52162,15.8 -4.14091,18 -2.86097,10.16346 -8.10471,16.06011 -17.928,20.16022 -8.17545,3.41232 -24.6036,4.3183 -31.97404,1.76331 z m 17.02704,-53.13999 c -3.66629,-1.88282 -10.02704,-9.42946 -10.02704,-11.89646 0,-1.13106 0.43317,-1.22562 1.93426,-0.42226 6.49331,3.47511 18.48728,-3.62067 28.65386,-16.95197 6.53138,-8.56451 6.91563,-6.42369 2.10069,11.7037 -3.22794,12.15262 -3.26833,12.23199 -7.71687,15.16652 -5.97937,3.94435 -10.51881,4.67348 -14.9449,2.40047 z m 75.98735,0.60199 c -5.7215,-1.19713 -10.98677,-8.95692 -11.00881,-16.22442 -0.005,-1.62173 0.35781,-1.53312 3.07149,0.75029 5.92371,4.98447 11.90002,4.70486 26.80617,-1.25414 12.38756,-4.95214 23.86339,-7.81063 25.35774,-6.31628 0.75528,0.75528 0.8096,2.87655 0.17588,6.86903 -0.73359,4.62169 -1.31663,5.83936 -2.91686,6.09184 -1.1,0.17355 -7.625,2.15053 -14.5,4.3933 -15.92549,5.1952 -22.61276,6.60533 -26.98561,5.69038 z m 120.48561,-5.17901 c -2.62746,-1.4849 -4.11844,-3.09043 -4.34516,-4.67901 -0.46173,-3.2351 1.87752,-14.02751 3.04044,-14.02751 0.5071,0 2.58311,1.29438 4.61336,2.8764 7.49468,5.84003 14.12442,6.50262 21.94136,2.19285 2.8875,-1.59198 5.25,-2.47488 5.25,-1.96201 0,0.51288 -1.06908,2.61106 -2.37573,4.66263 -7.61288,11.953 -18.69822,16.26374 -28.12427,10.93665 z M 435.96508,634.91555 c -2.17461,-1.09854 -2.36608,-1.78609 -2.27088,-8.15446 0.0903,-6.0406 0.69303,-8.2035 4.58538,-16.45477 6.28948,-13.33285 13.00086,-23.38804 20.85794,-31.25 6.11798,-6.12177 7.12445,-6.75 10.81408,-6.75 4.68394,0 6.13863,1.75538 6.13863,7.40751 0,4.31953 -3.75602,12.38028 -6.1181,13.12997 -1.98719,0.63071 -10.74466,11.29809 -16.19201,19.72332 -3.9029,6.03647 -7.89132,14.39318 -9.01533,18.88927 -0.8524,3.40967 -5.3769,5.18824 -8.79971,3.45916 z m 89.12515,-10.39765 c 0,-0.71959 9.98778,-10.6081 47.90445,-47.42833 l 13.40446,-13.01683 -0.66859,7.19379 c -0.36773,3.95658 -1.35813,8.52719 -2.20088,10.15691 -1.74013,3.36504 -11.2554,13.11767 -29.42459,30.1586 -11.6666,10.94214 -12.84235,11.77589 -17.93366,12.71707 -6.53416,1.2079 -11.08119,1.29768 -11.08119,0.21879 z m 139.44664,-9.30609 c 2.13515,-9.58204 2.46967,-11.839 2.50981,-16.93298 0.0486,-6.17332 -1.88401,-9.97251 -5.07301,-9.97251 -1.10174,0 -4.45622,2.32 -7.45441,5.15556 -2.99818,2.83556 -5.6659,4.9409 -5.92826,4.67855 -0.7759,-0.77591 10.35892,-19.04426 13.81733,-22.66943 1.75004,-1.83443 4.42527,-3.98651 5.94493,-4.78242 2.58905,-1.35598 2.92786,-1.28228 5.38061,1.17047 2.55083,2.55084 2.59967,2.83852 1.91517,11.28242 -0.69796,8.60984 -3.80011,20.26365 -7.84748,29.48048 -2.6103,5.94428 -4.31316,7.29514 -3.26469,2.58986 z m -64.44664,-10.55124 c 0,-1.45478 5.6645,-17.94362 6.88526,-20.04235 1.97987,-3.40379 1.11699,0.33097 -2.34181,10.13595 -3.29623,9.3441 -4.54345,12.06351 -4.54345,9.9064 z m -70.80676,-20.37721 c -1.12278,-1.20516 -2.18589,-4.23614 -2.55056,-7.27178 -1.14459,-9.52806 -1.16843,-9.46625 3.60732,-9.35196 2.3375,0.0559 11.12044,-0.51774 19.51765,-1.27482 8.3972,-0.75709 15.5972,-1.04413 16,-0.63786 0.40279,0.40626 -0.45596,1.71082 -1.90834,2.89902 -1.45238,1.1882 -6.40238,5.35912 -11,9.26872 -8.11862,6.9037 -8.55195,7.12746 -15.05006,7.77178 -5.96214,0.59117 -6.90042,0.43838 -8.61601,-1.4031 z m 83.64116,-18.97704 -0.3344,-3.5 -5.5,0.0435 c -3.025,0.0239 -6.34938,0.4333 -7.3875,0.90975 -1.75635,0.80607 -1.83729,0.53146 -1.16494,-3.95211 0.39741,-2.65011 1.13315,-5.89831 1.63498,-7.21823 0.85863,-2.25835 1.0436,-2.30796 3.13745,-0.84137 3.25001,2.2764 9.95647,1.99411 13.19781,-0.55553 1.47814,-1.16271 2.93419,-1.86734 3.23567,-1.56586 0.94671,0.94671 -3.01311,15.90266 -4.79016,18.09212 -1.67291,2.06113 -1.69877,2.04314 -2.02891,-1.41226 z"
         id="path3049"
         inkscape:connector-curvature="0" />
    </g>
  </g>
</svg>
